# Blender v2.78 (sub 0) OBJ File: 'plat1.blend'
# www.blender.org
mtllib plat1x4.mtl
o Cube
v 0.134266 -0.871990 -0.538940
v 0.136192 -0.875522 0.532694
v -0.131726 -0.875913 0.533175
v -0.133652 -0.872381 -0.538460
v 0.991379 1.014717 -3.998437
v 1.005756 0.988352 4.001454
v -0.994286 0.985433 4.005035
v -1.008664 1.011798 -3.994854
v 0.991995 0.590617 -3.999836
v 1.006373 0.564252 4.000054
v -0.993670 0.561333 4.003636
v -1.008047 0.587699 -3.996253
v 0.675518 -0.328218 -2.721898
v 0.685294 -0.346144 2.717230
v -0.674536 -0.348128 2.719667
v -0.684311 -0.330203 -2.719461
v 0.960000 1.114143 -3.872215
v 0.973925 1.088607 3.876003
v -0.977122 1.111316 -3.868745
v -0.963197 1.085781 3.879472
v 0.892476 1.113147 -3.600052
v 0.905423 1.089404 3.604084
v -0.908621 1.110519 -3.596826
v -0.895673 1.086776 3.607309
vt 0.5149 0.1019
vt 0.5149 0.1518
vt 0.4648 0.1518
vt 0.4648 0.1019
vt 0.9814 0.2537
vt 0.9814 0.6269
vt 0.9627 0.6210
vt 0.9627 0.2596
vt 0.7854 0.6269
vt 0.7060 0.6269
vt 0.7060 0.2537
vt 0.7854 0.2537
vt 0.9441 0.6269
vt 0.8647 0.6269
vt 0.8647 0.2537
vt 0.9441 0.2537
vt 0.3626 0.6269
vt 0.4419 0.6269
vt 0.4419 1.0000
vt 0.3626 1.0000
vt 0.6171 0.0000
vt 0.3626 0.0000
vt 0.7854 0.2537
vt 0.8647 0.2537
vt 0.8647 0.6269
vt 0.7854 0.6269
vt 0.3434 0.6748
vt 0.1717 0.7346
vt 0.1717 0.3614
vt 0.3434 0.4211
vt 0.1717 0.6748
vt 0.0000 0.7346
vt 0.0000 0.3614
vt 0.1717 0.4211
vt 0.3626 0.3134
vt 0.5343 0.2537
vt 0.5343 0.6269
vt 0.3626 0.5671
vt 0.6171 0.2537
vt 0.3626 0.2537
vt 0.7060 0.3134
vt 0.7060 0.5671
vt 0.5343 0.6269
vt 0.3626 0.0000
vt 0.3626 0.3614
vt 0.3498 0.3487
vt 0.3498 0.0127
vt 0.9814 0.2537
vt 1.0000 0.2596
vt 1.0000 0.6210
vt 0.9627 0.2537
vt 0.9627 0.6269
vt 0.9441 0.6210
vt 0.9441 0.2596
vt 0.3620 0.3614
vt 0.3620 0.7346
vt 0.3434 0.7287
vt 0.3434 0.3673
vt 0.0127 0.3487
vt 0.0127 0.0127
vt 0.0000 0.3614
vt 0.0000 0.0000
vn 0.0015 -1.0000 -0.0033
vn -0.0000 0.7812 0.6243
vn 1.0000 0.0015 -0.0018
vn 0.0018 -0.0033 1.0000
vn -1.0000 -0.0015 0.0018
vn 0.0010 -0.9704 -0.2415
vn -0.0018 0.0033 -1.0000
vn -0.9433 -0.3319 0.0006
vn 0.0022 -0.8158 0.5784
vn 0.9443 -0.3291 -0.0028
vn 0.7015 -0.7127 -0.0036
vn 0.0018 -0.9720 0.2351
vn -0.6994 -0.7147 -0.0011
vn 0.0001 -0.8119 -0.5837
vn -0.0015 1.0000 0.0033
vn 0.9534 0.3018 -0.0007
vn -0.9542 0.2990 0.0027
vn -0.0023 0.7853 -0.6191
usemtl Land
s off
f 1/1/1 2/2/1 3/3/1 4/4/1
f 7/5/2 6/6/2 18/7/2 20/8/2
f 9/9/3 5/10/3 6/11/3 10/12/3
f 10/13/4 6/14/4 7/15/4 11/16/4
f 11/17/5 7/18/5 8/19/5 12/20/5
f 13/21/6 1/1/6 4/4/6 16/22/6
f 5/23/7 9/24/7 12/25/7 8/26/7
f 15/27/8 11/28/8 12/29/8 16/30/8
f 14/31/9 10/32/9 11/33/9 15/34/9
f 13/35/10 9/36/10 10/37/10 14/38/10
f 1/1/11 13/21/11 14/39/11 2/2/11
f 2/2/12 14/39/12 15/40/12 3/3/12
f 3/3/13 15/40/13 16/22/13 4/4/13
f 9/36/14 13/41/14 16/42/14 12/43/14
f 17/44/15 19/45/15 23/46/15 21/47/15
f 6/6/16 5/48/16 17/49/16 18/50/16
f 8/51/17 7/52/17 20/53/17 19/54/17
f 5/55/18 8/56/18 19/57/18 17/58/18
f 21/47/15 23/46/15 24/59/15 22/60/15
f 20/61/15 18/62/15 22/60/15 24/59/15
f 18/62/15 17/44/15 21/47/15 22/60/15
f 19/45/15 20/61/15 24/59/15 23/46/15
