# Blender v2.78 (sub 0) OBJ File: 'plat1.blend'
# www.blender.org
mtllib plat4x4.mtl
o Cube
v 0.536142 -0.871418 -0.539674
v 0.538068 -0.874950 0.531987
v -0.533601 -0.876513 0.533908
v -0.535527 -0.872981 -0.537753
v 3.991435 1.019111 -4.003911
v 4.005808 0.992745 3.996173
v -3.994341 0.981071 4.010510
v -4.008718 1.007437 -3.989574
v 3.992050 0.595004 -4.005311
v 4.006425 0.568638 3.994774
v -3.993725 0.556964 4.009111
v -4.008101 0.583330 -3.990973
v 2.715256 -0.325247 -2.725620
v 2.725031 -0.343173 2.713640
v -2.714273 -0.351110 2.723389
v -2.724048 -0.333184 -2.715871
v 3.865674 1.118401 -3.877517
v 3.879596 1.092864 3.870888
v -3.882796 1.107094 -3.863631
v -3.868871 1.081558 3.884774
v 3.594113 1.117107 -3.604982
v 3.607058 1.093364 3.599328
v -3.610257 1.106594 -3.592070
v -3.597310 1.082851 3.612239
vt 0.5149 0.1019
vt 0.5149 0.1518
vt 0.4648 0.1518
vt 0.4648 0.1019
vt 0.9814 0.2537
vt 0.9814 0.6269
vt 0.9627 0.6210
vt 0.9627 0.2596
vt 0.7854 0.6269
vt 0.7060 0.6269
vt 0.7060 0.2537
vt 0.7854 0.2537
vt 0.9441 0.6269
vt 0.8647 0.6269
vt 0.8647 0.2537
vt 0.9441 0.2537
vt 0.3626 0.6269
vt 0.4419 0.6269
vt 0.4419 1.0000
vt 0.3626 1.0000
vt 0.6171 0.0000
vt 0.3626 0.0000
vt 0.7854 0.2537
vt 0.8647 0.2537
vt 0.8647 0.6269
vt 0.7854 0.6269
vt 0.3434 0.6748
vt 0.1717 0.7346
vt 0.1717 0.3614
vt 0.3434 0.4211
vt 0.1717 0.6748
vt 0.0000 0.7346
vt 0.0000 0.3614
vt 0.1717 0.4211
vt 0.3626 0.3134
vt 0.5343 0.2537
vt 0.5343 0.6269
vt 0.3626 0.5671
vt 0.6171 0.2537
vt 0.3626 0.2537
vt 0.7060 0.3134
vt 0.7060 0.5671
vt 0.5343 0.6269
vt 0.3626 0.0000
vt 0.3626 0.3614
vt 0.3498 0.3487
vt 0.3498 0.0127
vt 0.9814 0.2537
vt 1.0000 0.2596
vt 1.0000 0.6210
vt 0.9627 0.2537
vt 0.9627 0.6269
vt 0.9441 0.6210
vt 0.9441 0.2596
vt 0.3620 0.3614
vt 0.3620 0.7346
vt 0.3434 0.7287
vt 0.3434 0.3673
vt 0.0127 0.3487
vt 0.0127 0.0127
vt 0.0000 0.3614
vt 0.0000 0.0000
vn 0.0015 -1.0000 -0.0033
vn -0.0000 0.7812 0.6243
vn 1.0000 0.0015 -0.0018
vn 0.0018 -0.0033 1.0000
vn -1.0000 -0.0015 0.0018
vn 0.0010 -0.9704 -0.2415
vn -0.0018 0.0033 -1.0000
vn -0.5799 -0.8147 -0.0016
vn 0.0022 -0.8158 0.5784
vn 0.5822 -0.8130 -0.0037
vn 0.2397 -0.9708 -0.0036
vn 0.0018 -0.9720 0.2351
vn -0.2369 -0.9715 -0.0028
vn 0.0001 -0.8119 -0.5837
vn -0.0015 1.0000 0.0033
vn 0.6206 0.7841 0.0015
vn -0.6229 0.7823 0.0037
vn -0.0023 0.7853 -0.6191
usemtl Land
s off
f 1/1/1 2/2/1 3/3/1 4/4/1
f 7/5/2 6/6/2 18/7/2 20/8/2
f 9/9/3 5/10/3 6/11/3 10/12/3
f 10/13/4 6/14/4 7/15/4 11/16/4
f 11/17/5 7/18/5 8/19/5 12/20/5
f 13/21/6 1/1/6 4/4/6 16/22/6
f 5/23/7 9/24/7 12/25/7 8/26/7
f 15/27/8 11/28/8 12/29/8 16/30/8
f 14/31/9 10/32/9 11/33/9 15/34/9
f 13/35/10 9/36/10 10/37/10 14/38/10
f 1/1/11 13/21/11 14/39/11 2/2/11
f 2/2/12 14/39/12 15/40/12 3/3/12
f 3/3/13 15/40/13 16/22/13 4/4/13
f 9/36/14 13/41/14 16/42/14 12/43/14
f 17/44/15 19/45/15 23/46/15 21/47/15
f 6/6/16 5/48/16 17/49/16 18/50/16
f 8/51/17 7/52/17 20/53/17 19/54/17
f 5/55/18 8/56/18 19/57/18 17/58/18
f 21/47/15 23/46/15 24/59/15 22/60/15
f 20/61/15 18/62/15 22/60/15 24/59/15
f 18/62/15 17/44/15 21/47/15 22/60/15
f 19/45/15 20/61/15 24/59/15 23/46/15
