# Blender v2.78 (sub 0) OBJ File: 'plat1.blend'
# www.blender.org
mtllib plat3x3.mtl
o Cube
v 0.402420 -0.872015 -0.405471
v 0.403864 -0.874664 0.398265
v -0.399879 -0.875837 0.399706
v -0.401323 -0.873188 -0.404031
v 2.993180 1.014310 -3.002076
v 3.003960 0.994536 2.997921
v -2.996086 0.985781 3.008674
v -3.006869 1.005555 -2.991323
v 2.993796 0.590223 -3.003475
v 3.004577 0.570449 2.996522
v -2.995470 0.561693 3.007275
v -3.006252 0.581468 -2.992722
v 2.036543 -0.328465 -2.044471
v 2.043874 -0.341909 2.034929
v -2.035560 -0.347862 2.042240
v -2.042891 -0.334417 -2.037160
v 2.898824 1.113745 -2.907199
v 2.909266 1.094593 2.904041
v -2.912465 1.105265 -2.896784
v -2.902021 1.086113 2.914455
v 2.695156 1.112775 -2.702800
v 2.704864 1.094968 2.700373
v -2.708063 1.104891 -2.693116
v -2.698352 1.087083 2.710056
vt 0.5149 0.1019
vt 0.5149 0.1518
vt 0.4648 0.1518
vt 0.4648 0.1019
vt 0.9814 0.2537
vt 0.9814 0.6269
vt 0.9627 0.6210
vt 0.9627 0.2596
vt 0.7854 0.6269
vt 0.7060 0.6269
vt 0.7060 0.2537
vt 0.7854 0.2537
vt 0.9441 0.6269
vt 0.8647 0.6269
vt 0.8647 0.2537
vt 0.9441 0.2537
vt 0.3626 0.6269
vt 0.4419 0.6269
vt 0.4419 1.0000
vt 0.3626 1.0000
vt 0.6171 0.0000
vt 0.3626 0.0000
vt 0.7854 0.2537
vt 0.8647 0.2537
vt 0.8647 0.6269
vt 0.7854 0.6269
vt 0.3434 0.6748
vt 0.1717 0.7346
vt 0.1717 0.3614
vt 0.3434 0.4211
vt 0.1717 0.6748
vt 0.0000 0.7346
vt 0.0000 0.3614
vt 0.1717 0.4211
vt 0.3626 0.3134
vt 0.5343 0.2537
vt 0.5343 0.6269
vt 0.3626 0.5671
vt 0.6171 0.2537
vt 0.3626 0.2537
vt 0.7060 0.3134
vt 0.7060 0.5671
vt 0.5343 0.6269
vt 0.3626 0.0000
vt 0.3626 0.3614
vt 0.3498 0.3487
vt 0.3498 0.0127
vt 0.9814 0.2537
vt 1.0000 0.2596
vt 1.0000 0.6210
vt 0.9627 0.2537
vt 0.9627 0.6269
vt 0.9441 0.6210
vt 0.9441 0.2596
vt 0.3620 0.3614
vt 0.3620 0.7346
vt 0.3434 0.7287
vt 0.3434 0.3673
vt 0.0127 0.3487
vt 0.0127 0.0127
vt 0.0000 0.3614
vt 0.0000 0.0000
vn 0.0015 -1.0000 -0.0033
vn 0.0003 0.6844 0.7291
vn 1.0000 0.0015 -0.0018
vn 0.0018 -0.0033 1.0000
vn -1.0000 -0.0015 0.0018
vn 0.0008 -0.9494 -0.3140
vn -0.0018 0.0033 -1.0000
vn -0.6884 -0.7253 -0.0012
vn 0.0023 -0.7266 0.6871
vn 0.6905 -0.7233 -0.0036
vn 0.3123 -0.9500 -0.0037
vn 0.0019 -0.9515 0.3078
vn -0.3095 -0.9509 -0.0026
vn -0.0002 -0.7220 -0.6919
vn -0.0015 1.0000 0.0033
vn 0.7259 0.6879 0.0010
vn -0.7278 0.6857 0.0036
vn -0.0023 0.6892 -0.7246
usemtl Land
s off
f 1/1/1 2/2/1 3/3/1 4/4/1
f 7/5/2 6/6/2 18/7/2 20/8/2
f 9/9/3 5/10/3 6/11/3 10/12/3
f 10/13/4 6/14/4 7/15/4 11/16/4
f 11/17/5 7/18/5 8/19/5 12/20/5
f 13/21/6 1/1/6 4/4/6 16/22/6
f 5/23/7 9/24/7 12/25/7 8/26/7
f 15/27/8 11/28/8 12/29/8 16/30/8
f 14/31/9 10/32/9 11/33/9 15/34/9
f 13/35/10 9/36/10 10/37/10 14/38/10
f 1/1/11 13/21/11 14/39/11 2/2/11
f 2/2/12 14/39/12 15/40/12 3/3/12
f 3/3/13 15/40/13 16/22/13 4/4/13
f 9/36/14 13/41/14 16/42/14 12/43/14
f 17/44/15 19/45/15 23/46/15 21/47/15
f 6/6/16 5/48/16 17/49/16 18/50/16
f 8/51/17 7/52/17 20/53/17 19/54/17
f 5/55/18 8/56/18 19/57/18 17/58/18
f 21/47/15 23/46/15 24/59/15 22/60/15
f 20/61/15 18/62/15 22/60/15 24/59/15
f 18/62/15 17/44/15 21/47/15 22/60/15
f 19/45/15 20/61/15 24/59/15 23/46/15
