# Blender v2.78 (sub 0) OBJ File: 'plat1.blend'
# www.blender.org
mtllib plat2x3.mtl
o Cube
v 0.268462 -0.872206 -0.405228
v 0.269907 -0.874855 0.398502
v -0.265922 -0.875637 0.399463
v -0.267366 -0.872988 -0.404268
v 1.993172 1.012846 -3.000259
v 2.003953 0.993072 2.999690
v -1.996078 0.987235 3.006857
v -2.006861 1.007009 -2.993091
v 1.993788 0.588760 -3.001659
v 2.004570 0.568986 2.998291
v -1.995462 0.563150 3.005458
v -2.006245 0.582924 -2.994490
v 1.356637 -0.329455 -2.043236
v 1.363968 -0.342899 2.036131
v -1.355654 -0.346868 2.041005
v -1.362985 -0.333424 -2.038362
v 1.930277 1.112326 -2.905440
v 1.940719 1.093174 2.905754
v -1.943917 1.106673 -2.898497
v -1.933473 1.087521 2.912696
v 1.794619 1.111455 -2.701164
v 1.804329 1.093648 2.701966
v -1.807527 1.106199 -2.694709
v -1.797816 1.088392 2.708420
vt 0.5149 0.1019
vt 0.5149 0.1518
vt 0.4648 0.1518
vt 0.4648 0.1019
vt 0.9814 0.2537
vt 0.9814 0.6269
vt 0.9627 0.6210
vt 0.9627 0.2596
vt 0.7854 0.6269
vt 0.7060 0.6269
vt 0.7060 0.2537
vt 0.7854 0.2537
vt 0.9441 0.6269
vt 0.8647 0.6269
vt 0.8647 0.2537
vt 0.9441 0.2537
vt 0.3626 0.6269
vt 0.4419 0.6269
vt 0.4419 1.0000
vt 0.3626 1.0000
vt 0.6171 0.0000
vt 0.3626 0.0000
vt 0.7854 0.2537
vt 0.8647 0.2537
vt 0.8647 0.6269
vt 0.7854 0.6269
vt 0.3434 0.6748
vt 0.1717 0.7346
vt 0.1717 0.3614
vt 0.3434 0.4211
vt 0.1717 0.6748
vt 0.0000 0.7346
vt 0.0000 0.3614
vt 0.1717 0.4211
vt 0.3626 0.3134
vt 0.5343 0.2537
vt 0.5343 0.6269
vt 0.3626 0.5671
vt 0.6171 0.2537
vt 0.3626 0.2537
vt 0.7060 0.3134
vt 0.7060 0.5671
vt 0.5343 0.6269
vt 0.3626 0.0000
vt 0.3626 0.3614
vt 0.3498 0.3487
vt 0.3498 0.0127
vt 0.9814 0.2537
vt 1.0000 0.2596
vt 1.0000 0.6210
vt 0.9627 0.2537
vt 0.9627 0.6269
vt 0.9441 0.6210
vt 0.9441 0.2596
vt 0.3620 0.3614
vt 0.3620 0.7346
vt 0.3434 0.7287
vt 0.3434 0.3673
vt 0.0127 0.3487
vt 0.0127 0.0127
vt 0.0000 0.3614
vt 0.0000 0.0000
vn 0.0015 -1.0000 -0.0033
vn 0.0003 0.6844 0.7291
vn 1.0000 0.0015 -0.0018
vn 0.0018 -0.0033 1.0000
vn -1.0000 -0.0015 0.0018
vn 0.0008 -0.9494 -0.3140
vn -0.0018 0.0033 -1.0000
vn -0.8183 -0.5748 -0.0004
vn 0.0023 -0.7266 0.6871
vn 0.8199 -0.5725 -0.0034
vn 0.4418 -0.8971 -0.0038
vn 0.0019 -0.9515 0.3078
vn -0.4392 -0.8984 -0.0022
vn -0.0002 -0.7220 -0.6919
vn -0.0015 1.0000 0.0033
vn 0.8453 0.5342 0.0002
vn -0.8469 0.5318 0.0033
vn -0.0023 0.6892 -0.7246
usemtl Land
s off
f 1/1/1 2/2/1 3/3/1 4/4/1
f 7/5/2 6/6/2 18/7/2 20/8/2
f 9/9/3 5/10/3 6/11/3 10/12/3
f 10/13/4 6/14/4 7/15/4 11/16/4
f 11/17/5 7/18/5 8/19/5 12/20/5
f 13/21/6 1/1/6 4/4/6 16/22/6
f 5/23/7 9/24/7 12/25/7 8/26/7
f 15/27/8 11/28/8 12/29/8 16/30/8
f 14/31/9 10/32/9 11/33/9 15/34/9
f 13/35/10 9/36/10 10/37/10 14/38/10
f 1/1/11 13/21/11 14/39/11 2/2/11
f 2/2/12 14/39/12 15/40/12 3/3/12
f 3/3/13 15/40/13 16/22/13 4/4/13
f 9/36/14 13/41/14 16/42/14 12/43/14
f 17/44/15 19/45/15 23/46/15 21/47/15
f 6/6/16 5/48/16 17/49/16 18/50/16
f 8/51/17 7/52/17 20/53/17 19/54/17
f 5/55/18 8/56/18 19/57/18 17/58/18
f 21/47/15 23/46/15 24/59/15 22/60/15
f 20/61/15 18/62/15 22/60/15 24/59/15
f 18/62/15 17/44/15 21/47/15 22/60/15
f 19/45/15 20/61/15 24/59/15 23/46/15
