# Blender v2.78 (sub 0) OBJ File: 'plat1.blend'
# www.blender.org
mtllib plat4x2.mtl
o Cube
v 0.536613 -0.872244 -0.271758
v 0.537576 -0.874010 0.264072
v -0.534072 -0.875573 0.265993
v -0.535035 -0.873807 -0.269838
v 3.994952 1.012454 -2.003894
v 4.002137 0.999271 1.996153
v -3.997859 0.987597 2.010491
v -4.005046 1.000780 -1.989555
v 3.995568 0.588375 -2.005293
v 4.002754 0.575192 1.994754
v -3.997242 0.563518 2.009093
v -4.004429 0.576701 -1.990954
v 2.717648 -0.329707 -1.365807
v 2.722534 -0.338670 1.353827
v -2.716665 -0.346607 1.363576
v -2.721552 -0.337643 -1.356058
v 3.869081 1.111945 -1.940420
v 3.876040 1.099176 1.933788
v -3.879239 1.100638 -1.926532
v -3.872278 1.087870 1.947676
v 3.597281 1.111099 -1.803908
v 3.603751 1.099228 1.798252
v -3.606950 1.100587 -1.790995
v -3.600477 1.088715 1.811164
vt 0.5149 0.1019
vt 0.5149 0.1518
vt 0.4648 0.1518
vt 0.4648 0.1019
vt 0.9814 0.2537
vt 0.9814 0.6269
vt 0.9627 0.6210
vt 0.9627 0.2596
vt 0.7854 0.6269
vt 0.7060 0.6269
vt 0.7060 0.2537
vt 0.7854 0.2537
vt 0.9441 0.6269
vt 0.8647 0.6269
vt 0.8647 0.2537
vt 0.9441 0.2537
vt 0.3626 0.6269
vt 0.4419 0.6269
vt 0.4419 1.0000
vt 0.3626 1.0000
vt 0.6171 0.0000
vt 0.3626 0.0000
vt 0.7854 0.2537
vt 0.8647 0.2537
vt 0.8647 0.6269
vt 0.7854 0.6269
vt 0.3434 0.6748
vt 0.1717 0.7346
vt 0.1717 0.3614
vt 0.3434 0.4211
vt 0.1717 0.6748
vt 0.0000 0.7346
vt 0.0000 0.3614
vt 0.1717 0.4211
vt 0.3626 0.3134
vt 0.5343 0.2537
vt 0.5343 0.6269
vt 0.3626 0.5671
vt 0.6171 0.2537
vt 0.3626 0.2537
vt 0.7060 0.3134
vt 0.7060 0.5671
vt 0.5343 0.6269
vt 0.3626 0.0000
vt 0.3626 0.3614
vt 0.3498 0.3487
vt 0.3498 0.0127
vt 0.9814 0.2537
vt 1.0000 0.2596
vt 1.0000 0.6210
vt 0.9627 0.2537
vt 0.9627 0.6269
vt 0.9441 0.6210
vt 0.9441 0.2596
vt 0.3620 0.3614
vt 0.3620 0.7346
vt 0.3434 0.7287
vt 0.3434 0.3673
vt 0.0127 0.3487
vt 0.0127 0.0127
vt 0.0000 0.3614
vt 0.0000 0.0000
vn 0.0015 -1.0000 -0.0033
vn 0.0007 0.5302 0.8479
vn 1.0000 0.0015 -0.0018
vn 0.0018 -0.0033 1.0000
vn -1.0000 -0.0015 0.0018
vn 0.0005 -0.8963 -0.4435
vn -0.0018 0.0033 -1.0000
vn -0.5799 -0.8147 -0.0016
vn 0.0023 -0.5764 0.8172
vn 0.5822 -0.8130 -0.0037
vn 0.2397 -0.9708 -0.0036
vn 0.0021 -0.8992 0.4375
vn -0.2369 -0.9715 -0.0028
vn -0.0006 -0.5710 -0.8210
vn -0.0015 1.0000 0.0033
vn 0.6206 0.7842 0.0015
vn -0.6228 0.7823 0.0037
vn -0.0023 0.5358 -0.8443
usemtl Land
s off
f 1/1/1 2/2/1 3/3/1 4/4/1
f 7/5/2 6/6/2 18/7/2 20/8/2
f 9/9/3 5/10/3 6/11/3 10/12/3
f 10/13/4 6/14/4 7/15/4 11/16/4
f 11/17/5 7/18/5 8/19/5 12/20/5
f 13/21/6 1/1/6 4/4/6 16/22/6
f 5/23/7 9/24/7 12/25/7 8/26/7
f 15/27/8 11/28/8 12/29/8 16/30/8
f 14/31/9 10/32/9 11/33/9 15/34/9
f 13/35/10 9/36/10 10/37/10 14/38/10
f 1/1/11 13/21/11 14/39/11 2/2/11
f 2/2/12 14/39/12 15/40/12 3/3/12
f 3/3/13 15/40/13 16/22/13 4/4/13
f 9/36/14 13/41/14 16/42/14 12/43/14
f 17/44/15 19/45/15 23/46/15 21/47/15
f 6/6/16 5/48/16 17/49/16 18/50/16
f 8/51/17 7/52/17 20/53/17 19/54/17
f 5/55/18 8/56/18 19/57/18 17/58/18
f 21/47/15 23/46/15 24/59/15 22/60/15
f 20/61/15 18/62/15 22/60/15 24/59/15
f 18/62/15 17/44/15 21/47/15 22/60/15
f 19/45/15 20/61/15 24/59/15 23/46/15
