# Blender v2.78 (sub 0) OBJ File: 'plat1.blend'
# www.blender.org
mtllib plat3x2.mtl
o Cube
v 0.402657 -0.872433 -0.271515
v 0.403620 -0.874199 0.264310
v -0.400117 -0.875371 0.265750
v -0.401079 -0.873606 -0.270075
v 2.994953 1.010987 -2.002079
v 3.002139 0.997804 1.997923
v -2.997859 0.989049 2.008676
v -3.005047 1.002232 -1.991325
v 2.995569 0.586911 -2.003478
v 3.002755 0.573729 1.996524
v -2.997243 0.564973 2.007278
v -3.004431 0.578156 -1.992724
v 2.037748 -0.330696 -1.364573
v 2.042635 -0.339659 1.355030
v -2.036765 -0.345612 1.362342
v -2.041652 -0.336649 -1.357261
v 2.900542 1.110523 -1.938662
v 2.907502 1.097755 1.935503
v -2.910700 1.102044 -1.928246
v -2.903738 1.089275 1.945918
v 2.696753 1.109777 -1.802273
v 2.703223 1.097906 1.799846
v -2.706422 1.101893 -1.792589
v -2.699949 1.090021 1.809529
vt 0.5149 0.1019
vt 0.5149 0.1518
vt 0.4648 0.1518
vt 0.4648 0.1019
vt 0.9814 0.2537
vt 0.9814 0.6269
vt 0.9627 0.6210
vt 0.9627 0.2596
vt 0.7854 0.6269
vt 0.7060 0.6269
vt 0.7060 0.2537
vt 0.7854 0.2537
vt 0.9441 0.6269
vt 0.8647 0.6269
vt 0.8647 0.2537
vt 0.9441 0.2537
vt 0.3626 0.6269
vt 0.4419 0.6269
vt 0.4419 1.0000
vt 0.3626 1.0000
vt 0.6171 0.0000
vt 0.3626 0.0000
vt 0.7854 0.2537
vt 0.8647 0.2537
vt 0.8647 0.6269
vt 0.7854 0.6269
vt 0.3434 0.6748
vt 0.1717 0.7346
vt 0.1717 0.3614
vt 0.3434 0.4211
vt 0.1717 0.6748
vt 0.0000 0.7346
vt 0.0000 0.3614
vt 0.1717 0.4211
vt 0.3626 0.3134
vt 0.5343 0.2537
vt 0.5343 0.6269
vt 0.3626 0.5671
vt 0.6171 0.2537
vt 0.3626 0.2537
vt 0.7060 0.3134
vt 0.7060 0.5671
vt 0.5343 0.6269
vt 0.3626 0.0000
vt 0.3626 0.3614
vt 0.3498 0.3487
vt 0.3498 0.0127
vt 0.9814 0.2537
vt 1.0000 0.2596
vt 1.0000 0.6210
vt 0.9627 0.2537
vt 0.9627 0.6269
vt 0.9441 0.6210
vt 0.9441 0.2596
vt 0.3620 0.3614
vt 0.3620 0.7346
vt 0.3434 0.7287
vt 0.3434 0.3673
vt 0.0127 0.3487
vt 0.0127 0.0127
vt 0.0000 0.3614
vt 0.0000 0.0000
vn 0.0015 -1.0000 -0.0033
vn 0.0007 0.5302 0.8479
vn 1.0000 0.0015 -0.0018
vn 0.0018 -0.0033 1.0000
vn -1.0000 -0.0015 0.0018
vn 0.0005 -0.8963 -0.4435
vn -0.0018 0.0033 -1.0000
vn -0.6884 -0.7253 -0.0012
vn 0.0023 -0.5764 0.8172
vn 0.6905 -0.7233 -0.0036
vn 0.3123 -0.9500 -0.0037
vn 0.0021 -0.8992 0.4375
vn -0.3095 -0.9509 -0.0026
vn -0.0006 -0.5710 -0.8210
vn -0.0015 1.0000 0.0033
vn 0.7258 0.6879 0.0010
vn -0.7278 0.6857 0.0036
vn -0.0023 0.5358 -0.8444
usemtl Land
s off
f 1/1/1 2/2/1 3/3/1 4/4/1
f 7/5/2 6/6/2 18/7/2 20/8/2
f 9/9/3 5/10/3 6/11/3 10/12/3
f 10/13/4 6/14/4 7/15/4 11/16/4
f 11/17/5 7/18/5 8/19/5 12/20/5
f 13/21/6 1/1/6 4/4/6 16/22/6
f 5/23/7 9/24/7 12/25/7 8/26/7
f 15/27/8 11/28/8 12/29/8 16/30/8
f 14/31/9 10/32/9 11/33/9 15/34/9
f 13/35/10 9/36/10 10/37/10 14/38/10
f 1/1/11 13/21/11 14/39/11 2/2/11
f 2/2/12 14/39/12 15/40/12 3/3/12
f 3/3/13 15/40/13 16/22/13 4/4/13
f 9/36/14 13/41/14 16/42/14 12/43/14
f 17/44/15 19/45/15 23/46/15 21/47/15
f 6/6/16 5/48/16 17/49/16 18/50/16
f 8/51/17 7/52/17 20/53/17 19/54/17
f 5/55/18 8/56/18 19/57/18 17/58/18
f 21/47/15 23/46/15 24/59/15 22/60/15
f 20/61/15 18/62/15 22/60/15 24/59/15
f 18/62/15 17/44/15 21/47/15 22/60/15
f 19/45/15 20/61/15 24/59/15 23/46/15
