# Blender v2.78 (sub 0) OBJ File: 'plat1.blend'
# www.blender.org
mtllib plat1x3.mtl
o Cube
v 0.134505 -0.872399 -0.404986
v 0.135950 -0.875047 0.398740
v -0.131965 -0.875438 0.399221
v -0.133410 -0.872790 -0.404506
v 0.993165 1.011383 -2.998452
v 1.003948 0.991609 3.001468
v -0.996072 0.988691 3.005050
v -1.006855 1.008465 -2.994869
v 0.993782 0.587299 -2.999852
v 1.004565 0.567525 3.000069
v -0.995456 0.564607 3.003651
v -1.006239 0.584381 -2.996268
v 0.676733 -0.330446 -2.042007
v 0.684064 -0.343890 2.037340
v -0.675750 -0.345875 2.039777
v -0.683082 -0.332430 -2.039571
v 0.961730 1.110909 -2.903690
v 0.972173 1.091757 2.907476
v -0.975371 1.108083 -2.900219
v -0.964927 1.088931 2.910946
v 0.894085 1.110137 -2.699537
v 0.903795 1.092330 2.703567
v -0.906992 1.107509 -2.696310
v -0.897281 1.089702 2.706793
vt 0.5149 0.1019
vt 0.5149 0.1518
vt 0.4648 0.1518
vt 0.4648 0.1019
vt 0.9814 0.2537
vt 0.9814 0.6269
vt 0.9627 0.6210
vt 0.9627 0.2596
vt 0.7854 0.6269
vt 0.7060 0.6269
vt 0.7060 0.2537
vt 0.7854 0.2537
vt 0.9441 0.6269
vt 0.8647 0.6269
vt 0.8647 0.2537
vt 0.9441 0.2537
vt 0.3626 0.6269
vt 0.4419 0.6269
vt 0.4419 1.0000
vt 0.3626 1.0000
vt 0.6171 0.0000
vt 0.3626 0.0000
vt 0.7854 0.2537
vt 0.8647 0.2537
vt 0.8647 0.6269
vt 0.7854 0.6269
vt 0.3434 0.6748
vt 0.1717 0.7346
vt 0.1717 0.3614
vt 0.3434 0.4211
vt 0.1717 0.6748
vt 0.0000 0.7346
vt 0.0000 0.3614
vt 0.1717 0.4211
vt 0.3626 0.3134
vt 0.5343 0.2537
vt 0.5343 0.6269
vt 0.3626 0.5671
vt 0.6171 0.2537
vt 0.3626 0.2537
vt 0.7060 0.3134
vt 0.7060 0.5671
vt 0.5343 0.6269
vt 0.3626 0.0000
vt 0.3626 0.3614
vt 0.3498 0.3487
vt 0.3498 0.0127
vt 0.9814 0.2537
vt 1.0000 0.2596
vt 1.0000 0.6210
vt 0.9627 0.2537
vt 0.9627 0.6269
vt 0.9441 0.6210
vt 0.9441 0.2596
vt 0.3620 0.3614
vt 0.3620 0.7346
vt 0.3434 0.7287
vt 0.3434 0.3673
vt 0.0127 0.3487
vt 0.0127 0.0127
vt 0.0000 0.3614
vt 0.0000 0.0000
vn 0.0015 -1.0000 -0.0033
vn 0.0003 0.6844 0.7291
vn 1.0000 0.0015 -0.0018
vn 0.0018 -0.0033 1.0000
vn -1.0000 -0.0015 0.0018
vn 0.0008 -0.9494 -0.3140
vn -0.0018 0.0033 -1.0000
vn -0.9433 -0.3319 0.0006
vn 0.0023 -0.7266 0.6871
vn 0.9443 -0.3291 -0.0028
vn 0.7015 -0.7127 -0.0036
vn 0.0019 -0.9515 0.3078
vn -0.6994 -0.7148 -0.0011
vn -0.0002 -0.7220 -0.6919
vn -0.0015 1.0000 0.0033
vn 0.9534 0.3018 -0.0007
vn -0.9542 0.2990 0.0027
vn -0.0023 0.6892 -0.7246
usemtl Land
s off
f 1/1/1 2/2/1 3/3/1 4/4/1
f 7/5/2 6/6/2 18/7/2 20/8/2
f 9/9/3 5/10/3 6/11/3 10/12/3
f 10/13/4 6/14/4 7/15/4 11/16/4
f 11/17/5 7/18/5 8/19/5 12/20/5
f 13/21/6 1/1/6 4/4/6 16/22/6
f 5/23/7 9/24/7 12/25/7 8/26/7
f 15/27/8 11/28/8 12/29/8 16/30/8
f 14/31/9 10/32/9 11/33/9 15/34/9
f 13/35/10 9/36/10 10/37/10 14/38/10
f 1/1/11 13/21/11 14/39/11 2/2/11
f 2/2/12 14/39/12 15/40/12 3/3/12
f 3/3/13 15/40/13 16/22/13 4/4/13
f 9/36/14 13/41/14 16/42/14 12/43/14
f 17/44/15 19/45/15 23/46/15 21/47/15
f 6/6/16 5/48/16 17/49/16 18/50/16
f 8/51/17 7/52/17 20/53/17 19/54/17
f 5/55/18 8/56/18 19/57/18 17/58/18
f 21/47/15 23/46/15 24/59/15 22/60/15
f 20/61/15 18/62/15 22/60/15 24/59/15
f 18/62/15 17/44/15 21/47/15 22/60/15
f 19/45/15 20/61/15 24/59/15 23/46/15
