# Blender v2.78 (sub 0) OBJ File: 'plat1.blend'
# www.blender.org
mtllib plat1.mtl
o Cube
v 0.134985 -0.873244 -0.137078
v 0.135467 -0.874127 0.130833
v -0.132445 -0.874518 0.131313
v -0.132926 -0.873635 -0.136598
v 0.996747 1.004748 -0.998487
v 1.000341 0.998157 1.001500
v -0.999654 0.995239 1.005084
v -1.003248 1.001830 -0.994902
v 0.997364 0.580683 -0.999886
v 1.000957 0.574092 1.000101
v -0.999038 0.571173 1.003685
v -1.002632 0.577765 -0.996301
v 0.679168 -0.334913 -0.682230
v 0.681612 -0.339395 0.677562
v -0.678185 -0.341379 0.679999
v -0.680629 -0.336897 -0.679792
v 0.965199 1.104477 -0.966642
v 0.968680 1.098093 0.970426
v -0.971877 1.101651 -0.963170
v -0.968396 1.095267 0.973897
v 0.897310 1.104154 -0.898509
v 0.900546 1.098218 0.902537
v -0.903744 1.101526 -0.895281
v -0.900507 1.095590 0.905765
vt 0.5149 0.1019
vt 0.5149 0.1518
vt 0.4648 0.1518
vt 0.4648 0.1019
vt 0.6097 0.8802
vt 0.9828 0.8802
vt 0.9770 0.8988
vt 0.6156 0.8988
vt 0.7854 0.6269
vt 0.7060 0.6269
vt 0.7060 0.2537
vt 0.7854 0.2537
vt 0.9441 0.6269
vt 0.8647 0.6269
vt 0.8647 0.2537
vt 0.9441 0.2537
vt 0.3626 0.6269
vt 0.4419 0.6269
vt 0.4419 1.0000
vt 0.3626 1.0000
vt 0.6171 0.0000
vt 0.3626 0.0000
vt 0.7854 0.2537
vt 0.8647 0.2537
vt 0.8647 0.6269
vt 0.7854 0.6269
vt 0.3434 0.6748
vt 0.1717 0.7346
vt 0.1717 0.3614
vt 0.3434 0.4211
vt 0.1717 0.6748
vt 0.0000 0.7346
vt 0.0000 0.3614
vt 0.1717 0.4211
vt 0.3626 0.3134
vt 0.5343 0.2537
vt 0.5343 0.6269
vt 0.3626 0.5671
vt 0.6171 0.2537
vt 0.3626 0.2537
vt 0.7060 0.3134
vt 0.7060 0.5671
vt 0.5343 0.6269
vt 0.3626 0.0000
vt 0.3626 0.3614
vt 0.3498 0.3487
vt 0.3498 0.0127
vt 0.9898 0.9437
vt 0.6166 0.9437
vt 0.6225 0.9251
vt 0.9839 0.9251
vt 1.0209 0.7308
vt 0.6477 0.7308
vt 0.6536 0.7122
vt 1.0150 0.7122
vt 0.6251 0.8062
vt 0.9983 0.8062
vt 0.9924 0.8249
vt 0.6310 0.8249
vt 0.0127 0.3487
vt 0.0127 0.0127
vt 0.0000 0.3614
vt 0.0000 0.0000
vn 0.0015 -1.0000 -0.0033
vn 0.0013 0.2973 0.9548
vn 1.0000 0.0015 -0.0018
vn 0.0018 -0.0033 1.0000
vn -1.0000 -0.0015 0.0018
vn -0.0002 -0.7114 -0.7028
vn -0.0018 0.0033 -1.0000
vn -0.9433 -0.3319 0.0006
vn 0.0022 -0.3336 0.9427
vn 0.9443 -0.3291 -0.0028
vn 0.7014 -0.7127 -0.0036
vn 0.0023 -0.7161 0.6980
vn -0.6994 -0.7148 -0.0011
vn -0.0012 -0.3274 -0.9449
vn -0.0015 1.0000 0.0033
vn 0.9534 0.3018 -0.0007
vn -0.9542 0.2990 0.0027
vn -0.0022 0.3036 -0.9528
usemtl Land
s off
f 1/1/1 2/2/1 3/3/1 4/4/1
f 7/5/2 6/6/2 18/7/2 20/8/2
f 9/9/3 5/10/3 6/11/3 10/12/3
f 10/13/4 6/14/4 7/15/4 11/16/4
f 11/17/5 7/18/5 8/19/5 12/20/5
f 13/21/6 1/1/6 4/4/6 16/22/6
f 5/23/7 9/24/7 12/25/7 8/26/7
f 15/27/8 11/28/8 12/29/8 16/30/8
f 14/31/9 10/32/9 11/33/9 15/34/9
f 13/35/10 9/36/10 10/37/10 14/38/10
f 1/1/11 13/21/11 14/39/11 2/2/11
f 2/2/12 14/39/12 15/40/12 3/3/12
f 3/3/13 15/40/13 16/22/13 4/4/13
f 9/36/14 13/41/14 16/42/14 12/43/14
f 17/44/15 19/45/15 23/46/15 21/47/15
f 6/48/16 5/49/16 17/50/16 18/51/16
f 8/52/17 7/53/17 20/54/17 19/55/17
f 5/56/18 8/57/18 19/58/18 17/59/18
f 21/47/15 23/46/15 24/60/15 22/61/15
f 20/62/15 18/63/15 22/61/15 24/60/15
f 18/63/15 17/44/15 21/47/15 22/61/15
f 19/45/15 20/62/15 24/60/15 23/46/15
