# Blender v2.78 (sub 0) OBJ File: 'plat1.blend'
# www.blender.org
mtllib plat2x4.mtl
o Cube
v 0.268225 -0.871798 -0.539183
v 0.270151 -0.875329 0.532457
v -0.265684 -0.876111 0.533417
v -0.267610 -0.872580 -0.538223
v 1.991397 1.016179 -4.000249
v 2.005773 0.989814 3.999681
v -1.994303 0.983977 4.006847
v -2.008681 1.010342 -3.993081
v 1.992013 0.592078 -4.001649
v 2.006390 0.565713 3.998281
v -1.993687 0.559876 4.005449
v -2.008065 0.586241 -3.994481
v 1.355431 -0.327227 -2.723130
v 1.365206 -0.345153 2.716025
v -1.354448 -0.349122 2.720899
v -1.364223 -0.331196 -2.718256
v 1.928557 1.115560 -3.873970
v 1.942481 1.090024 3.874286
v -1.945680 1.109907 -3.867028
v -1.931754 1.084371 3.881227
v 1.793021 1.114465 -3.601684
v 1.805967 1.090722 3.602487
v -1.809166 1.109209 -3.595229
v -1.796218 1.085466 3.608941
vt 0.5149 0.1019
vt 0.5149 0.1518
vt 0.4648 0.1518
vt 0.4648 0.1019
vt 0.9814 0.2537
vt 0.9814 0.6269
vt 0.9627 0.6210
vt 0.9627 0.2596
vt 0.7854 0.6269
vt 0.7060 0.6269
vt 0.7060 0.2537
vt 0.7854 0.2537
vt 0.9441 0.6269
vt 0.8647 0.6269
vt 0.8647 0.2537
vt 0.9441 0.2537
vt 0.3626 0.6269
vt 0.4419 0.6269
vt 0.4419 1.0000
vt 0.3626 1.0000
vt 0.6171 0.0000
vt 0.3626 0.0000
vt 0.7854 0.2537
vt 0.8647 0.2537
vt 0.8647 0.6269
vt 0.7854 0.6269
vt 0.3434 0.6748
vt 0.1717 0.7346
vt 0.1717 0.3614
vt 0.3434 0.4211
vt 0.1717 0.6748
vt 0.0000 0.7346
vt 0.0000 0.3614
vt 0.1717 0.4211
vt 0.3626 0.3134
vt 0.5343 0.2537
vt 0.5343 0.6269
vt 0.3626 0.5671
vt 0.6171 0.2537
vt 0.3626 0.2537
vt 0.7060 0.3134
vt 0.7060 0.5671
vt 0.5343 0.6269
vt 0.3626 0.0000
vt 0.3626 0.3614
vt 0.3498 0.3487
vt 0.3498 0.0127
vt 0.9814 0.2537
vt 1.0000 0.2596
vt 1.0000 0.6210
vt 0.9627 0.2537
vt 0.9627 0.6269
vt 0.9441 0.6210
vt 0.9441 0.2596
vt 0.3620 0.3614
vt 0.3620 0.7346
vt 0.3434 0.7287
vt 0.3434 0.3673
vt 0.0127 0.3487
vt 0.0127 0.0127
vt 0.0000 0.3614
vt 0.0000 0.0000
vn 0.0015 -1.0000 -0.0033
vn -0.0000 0.7812 0.6243
vn 1.0000 0.0015 -0.0018
vn 0.0018 -0.0033 1.0000
vn -1.0000 -0.0015 0.0018
vn 0.0010 -0.9704 -0.2415
vn -0.0018 0.0033 -1.0000
vn -0.8183 -0.5748 -0.0004
vn 0.0022 -0.8158 0.5784
vn 0.8199 -0.5724 -0.0034
vn 0.4418 -0.8971 -0.0038
vn 0.0018 -0.9720 0.2351
vn -0.4392 -0.8984 -0.0022
vn 0.0001 -0.8119 -0.5837
vn -0.0015 1.0000 0.0033
vn 0.8453 0.5342 0.0002
vn -0.8469 0.5317 0.0033
vn -0.0023 0.7853 -0.6191
usemtl Land
s off
f 1/1/1 2/2/1 3/3/1 4/4/1
f 7/5/2 6/6/2 18/7/2 20/8/2
f 9/9/3 5/10/3 6/11/3 10/12/3
f 10/13/4 6/14/4 7/15/4 11/16/4
f 11/17/5 7/18/5 8/19/5 12/20/5
f 13/21/6 1/1/6 4/4/6 16/22/6
f 5/23/7 9/24/7 12/25/7 8/26/7
f 15/27/8 11/28/8 12/29/8 16/30/8
f 14/31/9 10/32/9 11/33/9 15/34/9
f 13/35/10 9/36/10 10/37/10 14/38/10
f 1/1/11 13/21/11 14/39/11 2/2/11
f 2/2/12 14/39/12 15/40/12 3/3/12
f 3/3/13 15/40/13 16/22/13 4/4/13
f 9/36/14 13/41/14 16/42/14 12/43/14
f 17/44/15 19/45/15 23/46/15 21/47/15
f 6/6/16 5/48/16 17/49/16 18/50/16
f 8/51/17 7/52/17 20/53/17 19/54/17
f 5/55/18 8/56/18 19/57/18 17/58/18
f 21/47/15 23/46/15 24/59/15 22/60/15
f 20/61/15 18/62/15 22/60/15 24/59/15
f 18/62/15 17/44/15 21/47/15 22/60/15
f 19/45/15 20/61/15 24/59/15 23/46/15
